<?xml version="1.0" encoding="UTF-8"?>
<svg width="1200pt" height="1200pt" version="1.1" viewBox="0 0 1200 1200" xmlns="http://www.w3.org/2000/svg">
 <g fill="#212121">
  <path d="m578.84 921.64c-5.6406-5.6211-8.8164-13.25-8.8242-21.215v-270.43l-270.39 0.042969c-7.9531 0-15.582-3.1602-21.207-8.7852s-8.7852-13.254-8.7852-21.211c0-7.9531 3.1602-15.582 8.7852-21.207s13.254-8.7852 21.207-8.7891l330.38-0.039063v330.41c0.011719 7.9688-3.1484 15.613-8.7812 21.246-5.6328 5.6367-13.273 8.8008-21.242 8.793-7.9648-0.007812-15.602-3.1797-21.227-8.8242z"/>
  <path d="m621.16 278.41c5.6406 5.6211 8.8164 13.254 8.8242 21.215v270.43l270.39-0.042969c7.9531 0.003906 15.582 3.1641 21.207 8.7891s8.7852 13.254 8.7852 21.207c0 7.957-3.1602 15.582-8.7852 21.207s-13.254 8.7891-21.207 8.7891l-330.38 0.042969v-330.42c-0.011719-7.9688 3.1484-15.609 8.7812-21.246 5.6328-5.6328 13.273-8.7969 21.242-8.793 7.9648 0.007812 15.602 3.1836 21.227 8.8242z"/>
 </g>
</svg>
