<?xml version="1.0" encoding="UTF-8"?>
<svg width="1200pt" height="1200pt" version="1.1" viewBox="0 0 1200 1200" xmlns="http://www.w3.org/2000/svg">
 <path d="m637.5 1137.5v-200h500v62.5c0 76-61.5 137.5-137.5 137.5zm0-275v-800h362.5c76 0 137.5 61.5 137.5 137.5v662.5zm125-412.5v100c0 20.5 17 37.5 37.5 37.5s37.5-17 37.5-37.5v-100c0-20.5-17-37.5-37.5-37.5s-37.5 17-37.5 37.5zm-700 412.5v-662.5c0-76 61.5-137.5 137.5-137.5h362.5v800zm300-312.5c0 20.5 17 37.5 37.5 37.5s37.5-17 37.5-37.5v-100c0-20.5-17-37.5-37.5-37.5s-37.5 17-37.5 37.5zm200 387.5h-500v62.5c0 76 61.5 137.5 137.5 137.5h362.5z" fill="#aba9f1"/>
</svg>
