<?xml version="1.0" encoding="UTF-8"?>
<svg width="1200pt" height="1200pt" version="1.1" viewBox="0 0 1200 1200" xmlns="http://www.w3.org/2000/svg">
 <path d="m362.5 550v-100c0-20.5 17-37.5 37.5-37.5s37.5 17 37.5 37.5v100c0 20.5-17 37.5-37.5 37.5s-37.5-17-37.5-37.5zm775-350v800c0 76-61.5 137.5-137.5 137.5h-800c-76 0-137.5-61.5-137.5-137.5v-800c0-76 61.5-137.5 137.5-137.5h800c76 0 137.5 61.5 137.5 137.5zm-137.5-62.5h-362.5v725h425v-662.5c0-34.5-28-62.5-62.5-62.5zm-862.5 62.5v662.5h425v-725h-362.5c-34.5 0-62.5 28-62.5 62.5zm62.5 862.5h362.5v-125h-425v62.5c0 34.5 28 62.5 62.5 62.5zm862.5-62.5v-62.5h-425v125h362.5c34.5 0 62.5-28 62.5-62.5zm-262.5-412.5c20.5 0 37.5-17 37.5-37.5v-100c0-20.5-17-37.5-37.5-37.5s-37.5 17-37.5 37.5v100c0 20.5 17 37.5 37.5 37.5z" fill="#212121"/>
</svg>
