<?xml version="1.0" encoding="UTF-8"?>
<svg width="1200pt" height="1200pt" version="1.1" viewBox="0 0 1200 1200" xmlns="http://www.w3.org/2000/svg">
 <path d="m300 93.75c-58.68 0-106.25 47.57-106.25 106.25v775c0 58.68 47.57 106.25 106.25 106.25h31.25v6.25c0 17.258 13.992 31.25 31.25 31.25s31.25-13.992 31.25-31.25v-6.25h400v6.25c0 17.258 13.992 31.25 31.25 31.25s31.25-13.992 31.25-31.25v-6.25h43.75c58.68 0 106.25-47.57 106.25-106.25v-775c0-58.68-47.57-106.25-106.25-106.25zm62.5 925h537.5c24.164 0 43.75-19.586 43.75-43.75v-118.75h-687.5v118.75c0 24.164 19.586 43.75 43.75 43.75zm206.25-862.5h-268.75c-24.164 0-43.75 19.586-43.75 43.75v593.75h313.12c-0.41016-2.0195-0.625-4.1094-0.625-6.25zm61.875 637.5c0.41016-2.0195 0.625-4.1094 0.625-6.25v-631.25h268.75c24.164 0 43.75 19.586 43.75 43.75v593.75zm38.125 143.75c0 17.258-13.992 31.25-31.25 31.25h-75c-17.258 0-31.25-13.992-31.25-31.25s13.992-31.25 31.25-31.25h75c17.258 0 31.25 13.992 31.25 31.25zm87.5-487.5c0-17.258-13.992-31.25-31.25-31.25s-31.25 13.992-31.25 31.25v75c0 17.258 13.992 31.25 31.25 31.25s31.25-13.992 31.25-31.25zm-281.25-31.25c17.258 0 31.25 13.992 31.25 31.25v75c0 17.258-13.992 31.25-31.25 31.25s-31.25-13.992-31.25-31.25v-75c0-17.258 13.992-31.25 31.25-31.25z" fill="#212121" fill-rule="evenodd"/>
</svg>
