<?xml version="1.0" encoding="UTF-8"?>
<svg width="1200pt" height="1200pt" version="1.1" viewBox="0 0 1200 1200" xmlns="http://www.w3.org/2000/svg">
 <path d="m1084.5 614.48c-1.875 4.5-4.5938 8.5312-8.0156 12l-99.984 99.984v0.046875c-14.625 14.625-38.344 14.625-53.016 0-14.625-14.672-14.625-38.391 0-53.016l36-36h-259.5c-20.672 0-37.5-16.781-37.5-37.5s16.828-37.5 37.5-37.5h259.5l-36-36c-13.734-14.766-13.359-37.781 0.9375-52.078s37.312-14.672 52.078-0.9375l99.984 99.984v0.046875c3.4219 3.4688 6.1406 7.5 8.0156 12 3.9844 9.2344 3.9844 19.734 0 28.969zm-147 235.5v100.03c-0.28125 48.188-39.281 87.234-87.516 87.469h-279.47c-4.7344 6.5625-10.266 12.422-16.5 17.531-15.516 11.859-34.5 18.375-54 18.469-6.9844 0.75-14.016 0.75-21 0l-300-75c-39.094-9.6562-66.562-44.719-66.516-84.984v-624.52c-0.046875-40.219 27.422-75.328 66.516-84.984l300-75c26.109-6.4219 53.766-0.51562 75 15.984 6.2344 5.1094 11.766 10.969 16.5 17.531h279.47c48.234 0.23438 87.234 39.281 87.516 87.469v100.03c0 20.672-16.781 37.5-37.5 37.5s-37.5-16.828-37.5-37.5v-100.03c0-3.2812-1.3125-6.4688-3.6562-8.8125s-5.5312-3.6562-8.8594-3.6562h-262.5v725.02l262.5-0.046875c3.3281 0 6.5156-1.3125 8.8594-3.6562s3.6562-5.5312 3.6562-8.8125v-100.03c0-20.672 16.781-37.5 37.5-37.5s37.5 16.828 37.5 37.5zm-425.02-636c0.46875-3.5625-0.65625-7.125-3.0469-9.7969-2.4375-2.6719-5.8594-4.2188-9.4219-4.1719h-3l-300 75c-5.4375 1.5-9.2812 6.3281-9.5156 12v624c0.23438 5.625 4.0781 10.453 9.5156 12l300 75c3.3281 1.5469 7.1719 1.5469 10.5 0 3.1875-2.3438 5.0625-6.0469 4.9688-10.031z" fill="#212121"/>
</svg>
