<?xml version="1.0" encoding="UTF-8"?>
<svg width="1200pt" height="1200pt" version="1.1" viewBox="0 0 1200 1200" xmlns="http://www.w3.org/2000/svg">
 <g fill="#212121" fill-rule="evenodd">
  <path d="m387.52 840c7.4258-17.023 18.039-32.664 31.426-46.051 28.125-28.164 66.262-43.949 106.05-43.949h150c39.789 0 77.926 15.789 106.05 43.949 13.387 13.387 24 29.023 31.426 46.051 8.2891 18.977 30.414 27.637 49.387 19.387 18.938-8.2891 27.637-30.414 19.352-49.387-11.137-25.539-27.039-49.012-47.102-69.113-42.227-42.188-99.449-65.887-159.11-65.887h-150c-59.664 0-116.89 23.699-159.11 65.887-20.062 20.102-35.961 43.574-47.102 69.113-8.2891 18.977 0.41406 41.102 19.352 49.387 18.977 8.25 41.102-0.41406 49.387-19.387z"/>
  <path d="m600 300c-124.16 0-225 100.84-225 225s100.84 225 225 225 225-100.84 225-225-100.84-225-225-225zm0 75c82.801 0 150 67.199 150 150s-67.199 150-150 150-150-67.199-150-150 67.199-150 150-150z"/>
  <path d="m1012.5 600c0 227.66-184.84 412.5-412.5 412.5-179.48 0-332.32-114.86-388.99-275.02-6.9375-19.5-28.352-29.738-47.887-22.836-19.5 6.8984-29.738 28.352-22.836 47.887 66.977 189.26 247.61 324.98 459.71 324.98 269.06 0 487.5-218.44 487.5-487.5 0-20.699-16.801-37.5-37.5-37.5s-37.5 16.801-37.5 37.5z"/>
  <path d="m187.5 600c0-227.66 184.84-412.5 412.5-412.5 179.48 0 332.32 114.86 388.99 275.02 6.9375 19.5 28.352 29.738 47.887 22.836 19.5-6.8984 29.738-28.352 22.836-47.887-66.977-189.26-247.61-324.98-459.71-324.98-269.06 0-487.5 218.44-487.5 487.5 0 20.699 16.801 37.5 37.5 37.5s37.5-16.801 37.5-37.5z"/>
  <path d="m48.488 551.51 75 75c14.625 14.664 38.398 14.664 53.023 0l75-75c14.625-14.625 14.625-38.398 0-53.023s-38.398-14.625-53.023 0l-48.488 48.488-48.488-48.488c-14.625-14.625-38.398-14.625-53.023 0s-14.625 38.398 0 53.023z"/>
  <path d="m1001.5 701.51 48.488-48.488 48.488 48.488c14.625 14.625 38.398 14.625 53.023 0s14.625-38.398 0-53.023l-75-75c-14.625-14.664-38.398-14.664-53.023 0l-75 75c-14.625 14.625-14.625 38.398 0 53.023s38.398 14.625 53.023 0z"/>
 </g>
</svg>
