<?xml version="1.0" encoding="UTF-8"?>
<svg width="1200pt" height="1200pt" version="1.1" viewBox="0 0 1200 1200" xmlns="http://www.w3.org/2000/svg">
 <path d="m1009 201.88c-9.4453-23.25-28.293-41.418-51.875-50l-177.12-64.375c-23.637-8.6172-49.824-6.7539-72 5.125l-95.5 51c-7.7734 4.3164-17.227 4.3164-25 0l-95.5-51c-22.195-11.816-48.355-13.68-72-5.125l-177.12 64.5c-23.582 8.582-42.43 26.75-51.875 50l-112.5 276.88c-8.2109 20.188-8.6992 42.691-1.3633 63.215 7.332 20.523 21.969 37.621 41.113 48.035l156 84.875v360.5c0.03125 21.824 8.7266 42.746 24.172 58.168s36.379 24.082 58.203 24.082h486.75c21.824 0 42.758-8.6602 58.203-24.082s24.141-36.344 24.172-58.168v-360.5l156.38-85c19.145-10.414 33.781-27.512 41.113-48.035 7.3359-20.523 6.8477-43.027-1.3633-63.215zm-450.75-3c26.105 13.867 57.395 13.867 83.5 0l70.125-37.5v1.875c-3.9336 37.172-26.074 69.961-59.082 87.504-33.012 17.539-72.574 17.539-105.59 0-33.008-17.543-55.148-50.332-59.082-87.504v-1.875zm494 336.25-126.5 68.875v-207.75c0-11.164-5.957-21.48-15.625-27.062s-21.582-5.582-31.25 0-15.625 15.898-15.625 27.062v639.25c-0.03125 5.25-2.1406 10.273-5.8672 13.973-3.7227 3.6992-8.7578 5.7773-14.008 5.7773h-486.75c-5.25 0-10.285-2.0781-14.008-5.7773-3.7266-3.6992-5.8359-8.7227-5.8672-13.973v-639.25c0-11.164-5.957-21.48-15.625-27.062s-21.582-5.582-31.25 0-15.625 15.898-15.625 27.062v207.75l-126.5-68.875c-5.6445-3.0859-9.9531-8.1484-12.102-14.215-2.1445-6.0664-1.9727-12.711 0.47656-18.66l112.5-276.88c2.8633-6.8047 8.4375-12.105 15.375-14.625l161.38-58.75v11.25c3.7031 43.699 23.68 84.414 55.973 114.09 32.293 29.672 74.547 46.137 118.4 46.137s86.109-16.465 118.4-46.137c32.293-29.672 52.27-70.387 55.973-114.09v-11.25l161.5 58.75c6.9062 2.418 12.512 7.5703 15.5 14.25l112.5 276.88c2.5781 5.9648 2.8398 12.676 0.73828 18.824-2.1016 6.1484-6.4219 11.289-12.113 14.426z" fill="#212121"/>
</svg>
