<?xml version="1.0" encoding="UTF-8"?>
<svg id="_레이어_1" data-name="레이어 1" xmlns="http://www.w3.org/2000/svg" viewBox="0 0 703.2 502.5">
  <defs>
    <style>
      .cls-1 {
        fill: #212121;
        stroke-width: 0px;
      }
    </style>
  </defs>
  <path class="cls-1" d="M2.5,119.63l56.89,113.77c3.04,6.09,8.55,10.58,15.13,12.32,6.57,1.75,13.58.58,19.24-3.2l5.81-3.89v240.16c0,6.29,2.5,12.32,6.94,16.76,4.44,4.45,10.47,6.94,16.76,6.94h369.76c6.29,0,12.32-2.5,16.76-6.94,4.45-4.44,6.94-10.47,6.94-16.76v-240.16l5.81,3.89c5.66,3.78,12.67,4.94,19.24,3.2,6.58-1.75,12.09-6.23,15.13-12.32l56.89-113.77c2.48-4.97,3.14-10.64,1.86-16.05-1.28-5.4-4.41-10.18-8.85-13.51L493.03,4.74c-4.1-3.08-9.09-4.74-14.22-4.74h-99.55c-6.29,0-12.32,2.5-16.76,6.94-4.45,4.44-6.94,10.47-6.94,16.76,0,16.94-9.03,32.59-23.7,41.06-14.67,8.47-32.74,8.47-47.41,0-14.67-8.47-23.7-24.12-23.7-41.06,0-6.29-2.5-12.32-6.94-16.76-4.44-4.45-10.47-6.94-16.76-6.94h-99.55c-5.13,0-10.12,1.66-14.22,4.74L9.49,90.07c-4.44,3.33-7.57,8.11-8.85,13.51-1.28,5.4-.62,11.08,1.86,16.05h0ZM145.38,47.41h70.94c7.03,27.36,25.9,50.16,51.46,62.18,25.56,12.02,55.16,12.02,80.72,0,25.56-12.02,44.43-34.82,51.46-62.18h70.94l91.61,68.74-36.03,72.06-20.34-13.54c-4.78-3.18-10.55-4.52-16.24-3.76-5.69.75-10.92,3.55-14.7,7.86-3.79,4.32-5.88,9.86-5.89,15.6v260.73H146.97V194.36c0-5.74-2.09-11.29-5.88-15.61-3.79-4.32-9.01-7.12-14.71-7.87-5.69-.76-11.47.58-16.25,3.77l-20.34,13.54-36.03-72.03,91.61-68.74Z"/>
  <path class="cls-1" d="M651.72,353.11l.1-.8c.12-.97.88-1.77,1.89-1.89,1.19-.14,2.27.7,2.42,1.89l.1.81c1.04,8.45,4.78,15.9,10.37,21.48,5.6,5.59,13.04,9.34,21.49,10.38l.81.1c.97.12,1.77.89,1.89,1.9.14,1.19-.71,2.27-1.9,2.41l-.79.1c-8.45,1.05-15.9,4.79-21.49,10.37-5.59,5.59-9.33,13.04-10.38,21.5l-.1.8c-.12.97-.88,1.77-1.89,1.89-1.19.14-2.28-.7-2.42-1.89l-.1-.8c-1.04-8.45-4.79-15.9-10.38-21.49-5.58-5.59-13.03-9.34-21.49-10.38l-.74-.09c-.99-.09-1.83-.87-1.95-1.89-.14-1.19.7-2.28,1.89-2.42l.8-.1c8.46-1.04,15.9-4.78,21.48-10.37,5.6-5.59,9.34-13.04,10.38-21.5h0ZM576.46,309.61l.07-.55c.09-.99.87-1.82,1.9-1.95,1.19-.14,2.27.7,2.42,1.89l.08.61c.77,6.3,3.57,11.85,7.74,16.02,4.17,4.17,9.72,6.96,16.02,7.74l.6.07c.96.12,1.77.88,1.89,1.88.15,1.19-.69,2.27-1.88,2.42l-.62.09c-6.3.77-11.86,3.57-16.02,7.74-4.17,4.16-6.96,9.71-7.74,16.02l-.06.45c-.05,1.04-.84,1.92-1.9,2.05-1.19.14-2.27-.7-2.42-1.89l-.07-.61c-.77-6.3-3.57-11.85-7.74-16.02-4.17-4.17-9.72-6.96-16.02-7.74l-.45-.06c-1.04-.05-1.92-.84-2.05-1.9-.14-1.19.7-2.27,1.89-2.42l.61-.07c6.3-.77,11.85-3.57,16.02-7.74,4.17-4.17,6.96-9.72,7.74-16.02h0ZM651.69,235.88l.14-1.09c.12-.97.88-1.77,1.89-1.89,1.19-.14,2.27.7,2.42,1.89l.13,1.09c1.44,11.64,6.6,21.91,14.31,29.62,7.71,7.71,17.98,12.87,29.62,14.31l1.09.14c.97.12,1.77.88,1.89,1.89.14,1.19-.7,2.28-1.89,2.42l-1.09.14c-11.64,1.44-21.92,6.6-29.63,14.31-7.71,7.71-12.87,17.97-14.31,29.62l-.13,1.09c-.12.97-.88,1.77-1.89,1.89-1.19.14-2.28-.7-2.42-1.89l-.14-1.09c-1.43-11.59-6.55-21.81-14.25-29.57-7.77-7.76-18.04-12.93-29.68-14.36l-1.09-.14c-.97-.12-1.77-.88-1.89-1.89-.14-1.19.7-2.28,1.89-2.42l1.09-.14c11.6-1.43,21.82-6.55,29.56-14.25,7.76-7.77,12.93-18.04,14.36-29.68h0Z"/>
</svg>