<?xml version="1.0" encoding="UTF-8"?>
<svg id="_레이어_1" data-name="레이어 1" xmlns="http://www.w3.org/2000/svg" viewBox="0 0 703.04 502.26">
  <defs>
    <style>
      .cls-1 {
        fill: #aba9f1;
        stroke-width: 0px;
      }
    </style>
  </defs>
  <path class="cls-1" d="M2.49,119.57l56.86,113.72c3.04,6.08,8.54,10.56,15.11,12.31,6.57,1.74,13.57.58,19.22-3.18l5.8-3.88v240.04c0,6.28,2.5,12.31,6.94,16.75,4.44,4.44,10.47,6.94,16.75,6.94h369.61c6.28,0,12.31-2.5,16.75-6.94,4.44-4.44,6.94-10.47,6.94-16.75v-240.04l5.8,3.88c5.65,3.77,12.66,4.93,19.22,3.18,6.57-1.74,12.07-6.23,15.11-12.31l56.86-113.72c2.48-4.96,3.14-10.63,1.87-16.03-1.27-5.4-4.4-10.18-8.83-13.51L492.79,4.74c-4.1-3.07-9.09-4.74-14.21-4.74h-99.5c-6.28,0-12.31,2.5-16.75,6.94-4.44,4.44-6.94,10.47-6.94,16.75,0,16.93-9.03,32.57-23.69,41.04-14.66,8.46-32.72,8.46-47.38,0-14.66-8.46-23.69-24.11-23.69-41.04,0-6.28-2.5-12.31-6.94-16.75-4.44-4.44-10.47-6.94-16.75-6.94h-99.5c-5.13,0-10.11,1.66-14.21,4.74L9.48,90.03c-4.44,3.33-7.57,8.11-8.85,13.5-1.28,5.4-.62,11.08,1.86,16.04h0Z"/>
  <path class="cls-1" d="M651.18,347.28l.1-.81c.12-.97.89-1.78,1.91-1.91,1.2-.14,2.29.71,2.44,1.91l.1.81c1.05,8.51,4.82,16.02,10.45,21.65,5.64,5.64,13.14,9.41,21.66,10.46l.81.1c.98.12,1.79.9,1.91,1.92.14,1.2-.72,2.29-1.92,2.43l-.8.1c-8.52,1.05-16.02,4.82-21.65,10.45-5.64,5.64-9.4,13.14-10.46,21.66l-.1.81c-.12.97-.89,1.78-1.91,1.9-1.2.15-2.29-.71-2.44-1.9l-.1-.8c-1.05-8.51-4.83-16.02-10.46-21.65-5.63-5.64-13.13-9.41-21.65-10.46l-.75-.09c-1-.1-1.84-.87-1.96-1.91-.15-1.2.71-2.29,1.9-2.44l.81-.1c8.52-1.05,16.02-4.82,21.65-10.45,5.64-5.64,9.41-13.14,10.46-21.66h0ZM575.35,303.45l.07-.56c.1-1,.87-1.84,1.91-1.96,1.2-.15,2.29.71,2.44,1.9l.08.62c.78,6.35,3.6,11.94,7.8,16.14,4.2,4.2,9.8,7.02,16.14,7.8l.61.07c.97.12,1.78.88,1.91,1.9.15,1.2-.69,2.29-1.89,2.44l-.62.09c-6.35.78-11.95,3.6-16.14,7.8-4.2,4.19-7.01,9.79-7.8,16.14l-.06.46c-.05,1.04-.85,1.94-1.92,2.06-1.2.14-2.29-.71-2.44-1.91l-.07-.61c-.78-6.34-3.6-11.94-7.8-16.14-4.2-4.2-9.8-7.02-16.14-7.8l-.45-.06c-1.05-.05-1.94-.85-2.06-1.92-.14-1.2.71-2.29,1.91-2.44l.61-.07c6.34-.78,11.94-3.6,16.14-7.8,4.2-4.2,7.02-9.8,7.8-16.14h0ZM651.15,229.17l.14-1.1c.12-.97.89-1.78,1.91-1.9,1.2-.15,2.29.71,2.44,1.9l.13,1.1c1.45,11.73,6.65,22.08,14.41,29.84,7.77,7.77,18.12,12.97,29.84,14.42l1.1.14c.97.12,1.78.89,1.91,1.9.14,1.2-.71,2.29-1.91,2.44l-1.09.14c-11.73,1.45-22.08,6.65-29.85,14.41-7.77,7.77-12.97,18.11-14.41,29.84l-.13,1.1c-.12.97-.89,1.78-1.91,1.91-1.2.14-2.29-.71-2.44-1.91l-.14-1.09c-1.44-11.68-6.6-21.98-14.35-29.79-7.83-7.82-18.17-13.03-29.91-14.47l-1.09-.14c-.97-.12-1.78-.89-1.9-1.9-.15-1.2.71-2.29,1.9-2.44l1.1-.14c11.68-1.44,21.98-6.6,29.79-14.35,7.82-7.83,13.02-18.17,14.47-29.91h0Z"/>
</svg>