<?xml version="1.0" encoding="UTF-8"?>
<svg id="_레이어_1" data-name="레이어 1" xmlns="http://www.w3.org/2000/svg" viewBox="0 0 1073.08 1237.64">
  <defs>
    <style>
      .cls-1 {
        fill: #212121;
        fill-rule: evenodd;
        stroke-width: 0px;
      }
    </style>
  </defs>
  <path class="cls-1" d="M178.85,1237.64h715.39c47.43,0,92.93-21.74,126.48-60.39,33.52-38.7,52.36-91.17,52.36-145.88V206.27c0-54.71-18.85-107.18-52.36-145.88C987.16,21.74,941.66,0,894.23,0H178.85c-47.43,0-92.93,21.74-126.48,60.39C18.85,99.09,0,151.57,0,206.27v825.1c0,54.71,18.85,107.18,52.36,145.88,33.55,38.66,79.05,60.39,126.48,60.39ZM708.49,1155.14h173.34c27.6,0,54.05-13.06,73.53-36.31,19.52-23.22,30.47-54.74,30.47-87.62V205c0-32.89-10.96-64.4-30.47-87.62-19.48-23.26-45.94-36.31-73.53-36.31H188.46c-27.6,0-54.05,13.06-73.53,36.31-19.52,23.22-30.47,54.74-30.47,87.62v826.21c0,32.89,10.96,64.4,30.47,87.62,19.48,23.26,45.94,36.31,73.53,36.31h173.34v-227.21h-34.01c-26.35,0-50.44-17.81-62.13-45.94-11.72-28.17-9.01-61.76,6.97-86.75l207.36-324.29c13.11-20.53,33.52-32.55,55.16-32.55s42.05,12.02,55.16,32.55l207.36,324.29c15.98,24.99,18.68,58.58,6.97,86.75-11.68,28.13-35.78,45.94-62.13,45.94h-34.01v227.21h0ZM536.54,521.87l213.94,323.86h-70.86c-19.74,0-35.77,18.48-35.77,41.25v268.16h-214.62v-268.16c0-22.77-16.03-41.25-35.77-41.25h-70.86l213.94-323.86ZM357.69,288.78h357.69c19.74,0,35.77-18.48,35.77-41.25s-16.03-41.25-35.77-41.25h-357.69c-19.74,0-35.77,18.48-35.77,41.25s16.03,41.25,35.77,41.25Z"/>
</svg>