<?xml version="1.0" encoding="UTF-8"?>
<svg width="1200pt" height="1200pt" version="1.1" viewBox="0 0 1200 1200" xmlns="http://www.w3.org/2000/svg">
 <g fill="#aba9f1">
  <path d="m775 542v160c0 27.5-14.5 51-36.5 64h350c0-0.5-0.5-1.5-1-2l-127-188.5c-14-21-37.5-33.5-62-33.5z"/>
  <path d="m175 1036h850c41.5 0 75-33.5 75-75v-145h-1e3v145c0 41.5 33.5 75 75 75z"/>
  <path d="m500 727h200c14 0 25-11.5 25-25v-238h125c10 0 19-6 23-15.5s2-20-5.5-27l-250-250c-9.5-10-25.5-10-35 0l-250 250c-7.5 7-9.5 17.5-5.5 27s13 15.5 23 15.5h125v238c0 13.5 11 25 25 25z"/>
  <path d="m461.5 766c-22-13-36.5-36.5-36.5-64v-160h-123.5c-24.5 0-48 12.5-62 33.5l-127 189.5c0 0.5-0.5 0.5-0.5 1z"/>
 </g>
</svg>
