<?xml version="1.0" encoding="UTF-8"?>
<svg width="1200pt" height="1200pt" version="1.1" viewBox="0 0 1200 1200" xmlns="http://www.w3.org/2000/svg">
 <path d="m260 120c9.4414-12.59 24.262-20 40-20h600c15.738 0 30.555 7.4102 40 20l150 200c6.4883 8.6562 10 19.18 10 30v600c0 82.844-67.156 150-150 150h-700c-82.844 0-150-67.156-150-150v-600c0-10.82 3.5078-21.344 10-30zm65 80-75 100h700l-75-100zm308.22 262.63c-18.945-16.84-47.492-16.84-66.438 0l-150 133.34c-20.641 18.344-22.496 49.949-4.1523 70.586 18.348 20.641 49.949 22.5 70.59 4.1523l66.781-59.363v288.66c0 27.613 22.387 50 50 50s50-22.387 50-50v-288.66l66.781 59.363c20.641 18.348 52.242 16.488 70.59-4.1523 18.344-20.641 16.484-52.242-4.1523-70.586z" fill="#aba9f1" fill-rule="evenodd"/>
</svg>
