<?xml version="1.0" encoding="UTF-8"?>
<svg width="1200pt" height="1200pt" version="1.1" viewBox="0 0 1200 1200" xmlns="http://www.w3.org/2000/svg">
 <g fill="#212121">
  <path d="m985.31 207.3h-157.39l-30.523-99.824c-12.078-39.602-48.039-66.227-89.477-66.227h-215.89c-41.438 0-77.398 26.625-89.477 66.227l-30.488 99.824h-157.39c-49.051 0-88.949 39.898-88.949 88.949v87.602c0 42.449 29.926 77.926 69.75 86.738v541.91c0 80.625 65.625 146.25 146.25 146.25h516.49c80.625 0 146.25-65.625 146.25-146.25v-541.95c39.824-8.8125 69.75-44.289 69.75-86.738v-87.562c0-49.051-39.863-88.949-88.914-88.949zm-518.18-80.102c3.375-11.023 13.387-18.449 24.938-18.449h215.89c11.551 0 21.562 7.4258 24.938 18.449l24.488 80.102h-314.7zm391.12 964.05h-516.52c-43.426 0-78.75-35.324-78.75-78.75v-539.74h674.02v539.74c0 43.426-35.363 78.75-78.75 78.75zm148.5-707.4c0 11.812-9.6016 21.449-21.449 21.449h-770.62c-11.812 0-21.449-9.6016-21.449-21.449v-87.602c0-11.812 9.6016-21.449 21.449-21.449h770.62c11.812 0 21.449 9.6016 21.449 21.449z"/>
  <path d="m414.64 555.3c-18.637 0-33.75 15.113-33.75 33.75v385.95c0 18.637 15.113 33.75 33.75 33.75s33.75-15.113 33.75-33.75v-385.95c0-18.676-15.113-33.75-33.75-33.75z"/>
  <path d="m600 555.3c-18.637 0-33.75 15.113-33.75 33.75v385.95c0 18.637 15.113 33.75 33.75 33.75s33.75-15.113 33.75-33.75v-385.95c0-18.676-15.113-33.75-33.75-33.75z"/>
  <path d="m785.36 555.3c-18.637 0-33.75 15.113-33.75 33.75v385.95c0 18.637 15.113 33.75 33.75 33.75s33.75-15.113 33.75-33.75v-385.95c0-18.676-15.113-33.75-33.75-33.75z"/>
 </g>
</svg>
