<?xml version="1.0" encoding="UTF-8"?>
<svg width="1200pt" height="1200pt" version="1.1" viewBox="0 0 1200 1200" xmlns="http://www.w3.org/2000/svg">
 <path d="m240.72 980.4c0.96094 0 2.0391-0.12109 3-0.23828l182.04-23.16c0.12109 0 0.35938-0.12109 0.48047-0.12109 2.2812-0.35938 4.4414-0.96094 6.4805-1.9219 0.35938-0.12109 0.71875-0.35938 1.0781-0.60156 2.0391-1.0781 4.0781-2.3984 5.7617-4.0781l439.92-435.36 64.68-64.078c27-26.762 27.238-70.441 0.48047-97.441l-93.84-94.801c-26.762-27-70.441-27.238-97.441-0.48047l-504.48 499.44c-1.6797 1.6797-3 3.7188-4.1992 5.7617-0.23828 0.35938-0.48047 0.71875-0.60156 1.0781-0.96094 2.0391-1.6797 4.1992-2.0391 6.4805 0 0.12109-0.12109 0.23828-0.12109 0.48047l-25.078 181.8c-0.96094 7.4414 1.4414 14.879 6.7188 20.16 4.5625 4.5586 10.801 7.0781 17.16 7.0781zm42.121-154.32 88.559 89.52-102.72 13.078zm420-450.24 125.28 122.4-405.24 401.04-123.24-124.44zm84.48-83.641c8.1602-8.0391 21.359-8.0391 29.52 0.12109l93.84 94.801c8.0391 8.1602 8.0391 21.48-0.12109 29.52l-48.238 47.762-125.28-122.4z" fill="#212121"/>
</svg>
