<?xml version="1.0" encoding="UTF-8"?>
<svg width="1200pt" height="1200pt" version="1.1" viewBox="0 0 1200 1200" xmlns="http://www.w3.org/2000/svg">
 <path d="m1055.2 1002.4-240-240c60.609-74.508 90.32-169.43 83.008-265.2-7.3164-95.77-51.094-185.08-122.32-249.52-71.219-64.438-164.45-99.094-260.47-96.82-96.02 2.2695-187.5 41.297-255.6 109.04-67.738 68.094-106.77 159.58-109.04 255.6-2.2734 96.02 32.383 189.25 96.82 260.47 64.441 71.223 153.75 115 249.52 122.32 95.766 7.3125 190.69-22.398 265.2-83.008l240 240c9.6523 8.2656 22.84 11.082 35.027 7.4766 12.188-3.6016 21.723-13.137 25.324-25.324 3.6055-12.188 0.78906-25.375-7.4766-35.027zm-742.5-265.12c-41.977-41.949-70.566-95.402-82.16-153.6-11.59-58.199-5.6602-118.53 17.039-173.36 22.703-54.828 61.152-101.7 110.49-134.67s107.35-50.574 166.69-50.574 117.35 17.602 166.69 50.574 87.789 79.84 110.49 134.67c22.699 54.828 28.629 115.16 17.039 173.36-11.594 58.199-40.184 111.65-82.16 153.6-37.066 37.512-83.418 64.52-134.33 78.27s-104.56 13.75-155.47 0-97.262-40.758-134.33-78.27z" fill="#212121"/>
</svg>
