<?xml version="1.0" encoding="UTF-8"?>
<svg width="1200pt" height="1200pt" version="1.1" viewBox="0 0 1200 1200" xmlns="http://www.w3.org/2000/svg">
 <path d="m175.71 548.66 305.4 152.71h0.003906c7.5938 3.8008 13.746 9.9609 17.539 17.559l152.69 305.36v0.003907c9.4102 19.008 23.949 35 41.98 46.172 18.027 11.172 38.82 17.07 60.031 17.035 3.4414 0 6.9023-0.16406 10.383-0.45703 22.891-1.957 44.656-10.801 62.426-25.367 17.766-14.566 30.707-34.176 37.109-56.242l219.49-746.27c7.7617-26.395 5.7422-54.699-5.6836-79.727-11.422-25.027-31.492-45.094-56.516-56.52-25.027-11.422-53.332-13.441-79.727-5.6797l-746.27 219.49c-29.539 8.6875-54.324 28.926-68.746 56.133-14.422 27.207-17.258 59.078-7.8672 88.402 9.3906 29.328 30.215 53.625 57.754 67.391zm40.027-139.96 746.27-219.49c3.7539-1.1367 7.6523-1.7227 11.57-1.7383 10.281 0.14844 20.094 4.332 27.32 11.645 5.0664 4.9453 8.6758 11.191 10.422 18.055 1.7461 6.8594 1.5703 14.07-0.51562 20.836l-219.49 746.27c-2.9844 10.16-9.9453 18.688-19.301 23.648-9.3555 4.9609-20.316 5.9336-30.402 2.7031-10.086-3.2305-18.441-10.395-23.172-19.867l-143.93-287.85 238.76-225.65c7.2812-6.8203 11.543-16.258 11.844-26.23 0.30469-9.9688-3.3789-19.648-10.234-26.898-6.8516-7.2461-16.312-11.465-26.281-11.723-9.9727-0.25391-19.637 3.4727-26.852 10.359l-232.91 220.12c-4.5195-3.2188-9.2695-6.0977-14.211-8.6172l-305.36-152.69c-9.4766-4.7305-16.641-13.086-19.871-23.172-3.2305-10.082-2.2539-21.047 2.707-30.402 4.957-9.3555 13.484-16.316 23.645-19.301z" fill="#212121"/>
</svg>
