<?xml version="1.0" encoding="UTF-8"?>
<svg id="_레이어_1" data-name="레이어 1" xmlns="http://www.w3.org/2000/svg" viewBox="0 0 744.17 724.38">
  <defs>
    <style>
      .cls-1 {
        fill: #fff;
        stroke-width: 0px;
      }

      .cls-2 {
        fill: none;
        stroke: #fff;
        stroke-miterlimit: 10;
        stroke-width: 20px;
      }
    </style>
  </defs>
  <path class="cls-2" d="M394.53,197.73c.16,32.05-8.5,57.58-15.17,72.99-13.28-1.14-21.44,3.29-24.72,5.41-5.11,3.3-8.29,7.78-14.65,16.75-6.66,9.4-10,14.1-11.23,19.94-.72,3.4-2.19,13.35,5.38,26.31-3.4-7.05-8.28-16.82-14.5-28.3-9.69-17.88-17.87-30.43-20.49-35.26-44.24-81.33-51.46-99.38-73.23-107.8-2.84-1.1-23.8-8.83-42.75,1.64-18.66,10.31-22.8,31.31-23.14,33.24-1.86,10.31-.4,20.69,12.4,47.33,7.52,15.66,18.91,36.91,35.63,60.89,10.94,22.57,21.88,45.15,32.82,67.72-15.16,3.47-75.9,15.55-136.74-19.13C47.75,327.34,10.03,265.74,10,197.73c-.03-74.15,44.75-136.71,103.44-167.01,76.97-39.74,167.66-18.79,222.1,32.9,7.76,7.36,58.61,57.21,59,134.11Z"/>
  <path class="cls-1" d="M635.29,260.31c-10.94-20.13-31.67-31.51-52.95-31.5-9.72,0-19.61,2.38-28.7,7.38h0c-12.24,6.75-21.17,17.21-26.28,29.21l-1.41-4.87c-10.92-20.12-31.64-31.51-52.94-31.5-9.72,0-19.63,2.38-28.73,7.39-4.8,2.65-8.83,6.26-12.05,10.35-4.84,6.15-7.95,13.33-9.95,20.83-.55,2.1-.39,5.62-.46,8.45-1.53-.98-3.26-1.63-5.06-1.82-10.88-8.79-24.84-14.51-38.34-14.5-9.72,0-19.61,2.38-28.7,7.38-12.22,6.75-21.17,17.21-26.28,29.21l-21.17-38.58c10.08-17.27,15.98-37.3,15.98-58.78,0-64.49-51.92-116.77-115.96-116.77s-115.97,52.28-115.97,116.77,48.7,113.26,109.91,116.45l114.65,209.88-89.19-36.6c-6.84-2.57-13.91-3.8-20.87-3.8-24.4,0-47.43,15-56.49,39.35l-.74,1.97v.35c-2.03,6.2-3.07,12.53-3.07,18.79,0,24.48,14.82,47.57,38.88,56.76v.02s243.07,100.16,243.07,100.16c28.6,14.51,60.91,22.1,94.16,22.1,36.83,0,74.85-9.29,110.24-28.77,73.98-40.73,117.28-114.98,117.32-189.52,0-30.1-7.11-60.23-22.14-87.9l-86.75-157.88ZM109.49,198.95c0-51.51,41.62-93.41,92.77-93.41s92.77,41.9,92.77,93.41c0,11.96-2.37,23.35-6.48,33.85l-27.25-49.66c-10.94-20.12-31.67-31.51-52.96-31.5-9.72,0-19.63,2.38-28.72,7.4-19.98,11.01-31.28,31.88-31.26,53.3,0,9.78,2.36,19.73,7.3,28.87l26.63,48.76c-41.56-9.23-72.81-46.43-72.81-91.02h0ZM615.73,675.12c-31.98,17.59-66.16,25.92-99.12,25.92-30.03,0-59.02-6.92-84.38-19.94l-.47-.24-243.88-100.5-.14-.05c-14.79-5.53-24.02-19.89-24.02-34.99,0-4.29.75-8.63,2.33-12.9l.09-.22c5.52-14.75,19.73-23.98,34.67-23.98,4.26,0,8.55.75,12.78,2.33l147.69,58.89L176.05,230.02c-3.05-5.64-4.47-11.68-4.47-17.69,0-13.25,6.97-26.1,19.2-32.8,5.6-3.09,11.61-4.53,17.59-4.53,13.16,0,25.94,7.04,32.6,19.35l83.82,152.56h0s50.61,93.78,50.61,93.78c3.07,5.66,10.12,7.74,15.74,4.66,5.62-3.09,7.69-10.18,4.62-15.84l-50.71-93.97c-2.93-5.52-3.4-9.14-3.41-15.06,0-13.28,6.99-26.14,19.2-32.86,5.6-3.07,11.59-4.5,17.57-4.51,13.15.02,25.94,7.03,32.64,19.37l11.17,20.14,38.45,71.21c3.07,5.66,10.12,7.74,15.75,4.65,5.62-3.1,7.68-10.18,4.61-15.85l-31.24-57.86.27-.13-.97-1.46h0c-4.36-7.85-7.51-21.1-7.43-33.66-.02-8.22,2.24-14.68,4.6-20.7,1.18-3.01,2.6-5.53,4.14-7.49,1.55-1.97,3.19-3.37,5.01-4.37,5.61-3.08,11.61-4.52,17.59-4.53,13.17,0,25.93,7.03,32.57,19.33l12.83,23.79c.09.17.13.35.22.52l35.29,66.7c3.07,5.65,10.12,7.74,15.74,4.65,5.62-3.08,7.69-10.18,4.62-15.84l-21.59-40.81.25-.15v-.02s0-.02,0-.02l-.03-.03c-3.02-5.63-7.33-15.03-7.34-21.03.02-13.28,6.98-26.14,19.19-32.84,5.61-3.07,11.6-4.51,17.58-4.52,13.16.02,25.93,7.02,32.59,19.35l86.75,157.88c13.1,24.15,19.3,50.3,19.3,76.7.06,65.35-38.33,132.24-105.23,169.03h0Z"/>
</svg>